<svg width="141" height="35" viewBox="0 0 141 35" fill="none" xmlns="http://www.w3.org/2000/svg">
<g clip-path="url(#clip0_327_438)">
<path d="M10.2198 0.203873H0V34.7963C7.6521 34.7963 7.29548 27.8472 7.29548 27.8472V6.94914H9.38427C11.7685 6.94914 12.9607 8.28393 12.9607 11.0146V23.9652C12.9607 26.6959 11.9723 28.0816 9.38427 28.0816H7.29548C7.29548 33.6449 10.2402 34.5518 12.3188 34.5518C18.4527 34.5518 20.246 29.8545 20.246 24.5561V10.4135C20.246 3.872 17.3726 0.203873 10.2198 0.203873Z" fill="#00484A"/>
<path d="M55.3171 25.0656V14.0001H59.7393V7.79485H49.8557C53.7786 6.75555 55.3171 4.42222 55.3171 9.15527e-05H48.2153V7.79485H44.5879V14.0001H48.2153V26.2577C48.2153 31.6682 50.2531 34.9899 55.9591 34.9899C57.4467 34.9899 58.7407 34.8371 59.831 34.4906V28.479C59.2807 28.6318 58.7407 28.6726 58.0886 28.6726C55.9489 28.6726 55.3069 27.6842 55.3069 25.0452L55.3171 25.0656Z" fill="#00484A"/>
<path d="M33.5225 7.44841C27.3172 7.44841 23.5472 11.1675 23.5472 16.9753V17.2708L30.6491 17.7701V16.9753C30.6491 14.9375 31.4948 13.9491 33.176 13.9491C34.8572 13.9491 35.7539 14.8458 35.7539 16.6289V18.5139L30.3944 19.5532C25.1775 20.5416 22.5996 23.3742 22.5996 27.9899C22.5996 32.1573 25.3303 34.9899 29.1513 34.9899C32.7277 34.9899 35.1629 32.8094 35.7539 28.8865C35.7539 28.8865 35.3158 34.5925 42.8558 34.5925V16.7715C42.8558 10.6682 39.4322 7.43822 33.5225 7.43822V7.44841ZM35.7539 24.6274C35.7539 26.8589 34.1134 28.4484 31.9329 28.4484C30.588 28.4484 29.7015 27.6536 29.7015 26.4106C29.7015 25.0656 30.4963 24.2301 32.0348 23.9244L35.7539 23.1806V24.6173V24.6274Z" fill="#00484A"/>
<path d="M73.4028 7.44841C67.1976 7.44841 63.4276 11.1675 63.4276 16.9753V17.2708L70.5295 17.7701V16.9753C70.5295 14.9375 71.3752 13.9491 73.0564 13.9491C74.7376 13.9491 75.6343 14.8458 75.6343 16.6289V18.5139L70.2747 19.5532C65.0579 20.5416 62.48 23.3742 62.48 27.9899C62.48 32.1573 65.2107 34.9899 69.0316 34.9899C72.6081 34.9899 75.0433 32.8094 75.6343 28.8865C75.6343 28.8865 75.1961 34.5925 82.7361 34.5925V16.7715C82.7361 10.6682 79.3126 7.43822 73.4028 7.43822V7.44841ZM75.6343 24.6274C75.6343 26.8589 73.9938 28.4484 71.8133 28.4484C70.4683 28.4484 69.5819 27.6536 69.5819 26.4106C69.5819 25.0656 70.3766 24.2301 71.9152 23.9244L75.6343 23.1806V24.6173V24.6274Z" fill="#00484A"/>
<path d="M131.665 7.44845C125.46 7.44845 121.69 11.1675 121.69 16.9754V17.2709L128.792 17.7701V16.9754C128.792 14.9375 129.637 13.9492 131.319 13.9492C133 13.9492 133.896 14.8458 133.896 16.6289V18.514L128.537 19.5533C123.32 20.5416 120.742 23.3742 120.742 27.9899C120.742 32.1573 123.473 34.9899 127.294 34.9899C130.87 34.9899 133.305 32.8094 133.896 28.8866C133.896 28.8866 133.458 34.5926 140.998 34.5926V16.7716C140.998 10.6682 137.575 7.43826 131.665 7.43826V7.44845ZM133.896 24.6275C133.896 26.8589 132.256 28.4485 130.076 28.4485C128.731 28.4485 127.844 27.6537 127.844 26.4106C127.844 25.0656 128.639 24.2301 130.177 23.9244L133.896 23.1806V24.6173V24.6275Z" fill="#00484A"/>
<path d="M112.05 7.39746C108.474 7.39746 105.998 9.97534 105.652 13.8982C105.203 9.87344 103.023 7.39746 99.3953 7.39746C95.9718 7.39746 93.4856 9.83269 93.0373 13.6536L92.0897 7.79484H85.9863V34.6027H93.0882V17.1282C93.0882 15.0394 94.0358 14.0001 95.9208 14.0001C97.8058 14.0001 98.7025 15.0394 98.7025 17.1282V34.6027H105.753V17.1282C105.753 15.0394 106.701 14.0001 108.586 14.0001C110.471 14.0001 111.368 15.0394 111.368 17.1282V34.6027H118.47V15.7832C118.47 10.6173 116.381 7.39746 112.071 7.39746H112.05Z" fill="#00484A"/>
</g>
<defs>
<clipPath id="clip0_327_438">
<rect width="140.998" height="35" fill="white"/>
</clipPath>
</defs>
</svg>
